<svg height="512" viewBox="0 0 512 512" width="512" xmlns="http://www.w3.org/2000/svg"><g id="flat"><g fill="#cbcbcb"><path d="m408 488h40v-24l-24-16-16-120-40 24 16 118.893z"/><path d="m144 478.142-1.373 1.029a44.141 44.141 0 0 1 -57.7-4.1 44.145 44.145 0 0 1 -12.927-31.214v-9.59a137.026 137.026 0 0 1 11.079-53.977l12.921-30.148 23 27.6a86.6 86.6 0 0 1 19.642 46.824z"/><path d="m329.382 113.641-25.691-19.47a109.265 109.265 0 0 0 -12.977-8.456l-6.323-3.509a109.243 109.243 0 0 0 -56.7-13.659l-35.691 1.207 21.189 26.006a109.244 109.244 0 0 0 42.559 31.788 109.252 109.252 0 0 0 45.828 8.39l9.136-.31z"/></g><g fill="#eaeae8"><path d="m438.585 140.1-16.394-18.736a74.262 74.262 0 0 0 -55.891-25.364 74.258 74.258 0 0 0 -25.031 4.361l-16.613-22.15a109.135 109.135 0 0 0 -10.149-11.7l-5.107-5.111a109.245 109.245 0 0 0 -50.753-28.736l-34.647-8.664 13.214 30.832a109.239 109.239 0 0 0 32.168 42.273 109.255 109.255 0 0 0 41.749 20.678l.466.116a74.214 74.214 0 0 0 -12.468 15.553l-.546.91a74.26 74.26 0 0 0 -10.583 38.208v35.43l-20 2a168.94 168.94 0 0 0 -102.646 48.639l-6.73 6.729a163.864 163.864 0 0 0 -46.35 92.693l-.2 1.41a169.14 169.14 0 0 0 19.526 106.212l2.687 4.835a33.988 33.988 0 0 0 29.719 17.482h131.994a51.776 51.776 0 0 0 -28.622-46.311 15.994 15.994 0 0 0 -7.155-1.689h-20.223l25.816-7.745a88.5 88.5 0 0 0 62.184-72.255l24 112 16 16h40v-24l-16-8-16-88a106.582 106.582 0 0 0 40-83.225v-84.775l21.3-21.3a28.268 28.268 0 0 0 1.285-38.6z"/><path d="m156.44 422.66a39.492 39.492 0 0 0 -17.42 37.17c.02.18.03.36.04.55l.52 17.27a33.507 33.507 0 0 1 -5.29-7.13c-.87-1.56-1.76-3.17-2.69-4.84a167.229 167.229 0 0 1 -8.35-17.27 55.445 55.445 0 0 1 24.31-39.07 8 8 0 0 1 8.88 13.32z"/><path d="m428.83 187.17-12.83 12.83v8.43l-7.52 2.51a84.334 84.334 0 0 1 -77.28-12.54 8 8 0 0 1 9.6-12.8 68.371 68.371 0 0 0 62.62 10.16l10.05-3.35z"/><path d="m445.54 160.15a28.071 28.071 0 0 1 -5.87 15.85h-15.67a8.008 8.008 0 0 1 -5.66-2.34l-8-8a8 8 0 0 1 11.32-11.32l5.65 5.66h16.69a7.809 7.809 0 0 1 1.54.15z"/></g><circle cx="368" cy="136" fill="#f1746a" r="15"/><path d="m445.54 160.15a28.071 28.071 0 0 1 -5.87 15.85h-15.67a8.008 8.008 0 0 1 -5.66-2.34l-8-8a8 8 0 0 1 11.32-11.32l5.65 5.66h16.69a7.809 7.809 0 0 1 1.54.15z" fill="#ffb3b3"/><path d="m267.38 441.69a16.007 16.007 0 0 0 -7.16-1.69h-20.22l15.952-4.788.048-19.212a72.083 72.083 0 0 0 -71.547-72 8.235 8.235 0 0 0 -8.44 7.537 8 8 0 0 0 7.987 8.463 56.063 56.063 0 0 1 56 56v16h-23.728a8.18 8.18 0 0 0 -8.255 7.471 8 8 0 0 0 7.983 8.529h61.09a51.721 51.721 0 0 0 -9.71-6.31z" fill="#cbcbcb"/><path d="m428.83 187.17-12.83 12.83v8.43l-7.52 2.51a84.334 84.334 0 0 1 -77.28-12.54 8 8 0 0 1 9.6-12.8 68.371 68.371 0 0 0 62.62 10.16l10.05-3.35z" fill="#cbcbcb"/></g></svg>